<svg width="25" height="25" viewBox="0 0 25 25" fill="none" xmlns="http://www.w3.org/2000/svg">
<g id="SVG">
<path id="Vector" d="M8.5 10.3401V8.34009H6.5V12.8401C6.5 13.1162 6.27614 13.3401 6 13.3401C5.72386 13.3401 5.5 13.1162 5.5 12.8401V7.34009H8.5C8.5 4.93637 10.4523 3.34009 12.5 3.34009C14.5575 3.34009 16.5 5.04565 16.5 7.34009H19.5V19.8401C19.5 20.6685 18.8284 21.3401 18 21.3401H13C12.7239 21.3401 12.5 21.1162 12.5 20.8401C12.5 20.564 12.7239 20.3401 13 20.3401H18C18.2761 20.3401 18.5 20.1162 18.5 19.8401V8.34009H16.5V10.3401H15.5V8.34009H9.5V10.3401H8.5ZM12.5 4.34009C10.9477 4.34009 9.5 5.54381 9.5 7.34009H15.5C15.5 5.63453 14.0425 4.34009 12.5 4.34009Z" fill="#15151A"/>
<path id="Vector_2" d="M8 14.3401C8.27614 14.3401 8.5 14.564 8.5 14.8401V17.3401H11C11.2761 17.3401 11.5 17.564 11.5 17.8401C11.5 18.1162 11.2761 18.3401 11 18.3401H8.5V20.8401C8.5 21.1162 8.27614 21.3401 8 21.3401C7.72386 21.3401 7.5 21.1162 7.5 20.8401V18.3401H5C4.72386 18.3401 4.5 18.1162 4.5 17.8401C4.5 17.564 4.72386 17.3401 5 17.3401H7.5V14.8401C7.5 14.564 7.72386 14.3401 8 14.3401Z" fill="#15151A"/>
</g>
</svg>
