<svg width="25" height="24" viewBox="0 0 25 24" fill="none" xmlns="http://www.w3.org/2000/svg">
<path fill-rule="evenodd" clip-rule="evenodd" d="M9.97998 6.5C9.97998 4.88779 11.2202 3.5 12.98 3.5C14.7398 3.5 15.98 4.88779 15.98 6.5V7.5H9.97998V6.5ZM8.47998 9V11.5H9.97998V9H15.98V11.5H17.48V9H19.48V19.75C19.48 20.1642 19.1442 20.5 18.73 20.5H7.22998C6.81577 20.5 6.47998 20.1642 6.47998 19.75V9H8.47998ZM8.47998 7.5V6.5C8.47998 4.11221 10.3398 2 12.98 2C15.6202 2 17.48 4.11221 17.48 6.5V7.5H20.23H20.98V8.25V19.75C20.98 20.9926 19.9726 22 18.73 22H7.22998C5.98734 22 4.97998 20.9926 4.97998 19.75V8.25V7.5H5.72998H8.47998Z" fill="#141415"/>
</svg>
