<svg width="25" height="24" viewBox="0 0 25 24" fill="none" xmlns="http://www.w3.org/2000/svg">
<rect x="4.59009" y="10" width="16" height="10" rx="1" fill="#5C5CD6"/>
<rect x="5.59009" y="11" width="14" height="8" rx="1" fill="#EAEAF9"/>
<rect x="4.59009" y="10" width="16" height="10" rx="1" stroke="#5C5CD6" stroke-width="2"/>
<path d="M5.6001 5C5.6001 2.79086 7.39096 1 9.6001 1H15.5801C17.7892 1 19.5801 2.79086 19.5801 5C19.5801 5 18.6847 5 17.5801 5H7.6001C6.49553 5 5.6001 5 5.6001 5ZM19.5801 5H5.6001H19.5801ZM5.6001 5V3V5ZM19.5801 3V5V3Z" fill="#5C5CD6" mask="url(#path-3-inside-1_1_6022)"/>
<mask id="path-5-inside-2_1_6022" fill="white">
<path d="M4.61011 8C4.61011 6.89543 5.50554 6 6.61011 6H18.5801C19.6847 6 20.5801 6.89543 20.5801 8V8H4.61011V8Z"/>
</mask>
<path d="M4.61011 8C4.61011 6.89543 5.50554 6 6.61011 6H18.5801C19.6847 6 20.5801 6.89543 20.5801 8V8H4.61011V8Z" fill="#5C5CD6"/>
<path d="M4.61011 8C4.61011 5.79086 6.40097 4 8.61011 4H16.5801C18.7892 4 20.5801 5.79086 20.5801 8C20.5801 8 19.6847 8 18.5801 8H6.61011C5.50554 8 4.61011 8 4.61011 8ZM20.5801 8H4.61011H20.5801ZM4.61011 8V6V8ZM20.5801 6V8V6Z" fill="#5C5CD6" mask="url(#path-5-inside-2_1_6022)"/>
</svg>
