<svg width="25" height="24" viewBox="0 0 25 24" fill="none" xmlns="http://www.w3.org/2000/svg">
<g id="image">
<path id="Vector" fill-rule="evenodd" clip-rule="evenodd" d="M7.94995 5.5C5.7193 5.5 3.94995 7.30906 3.94995 9.5C3.94995 10.4282 4.32679 11.4436 4.99865 12.5105C5.66687 13.5716 6.59143 14.6274 7.60122 15.6219C9.00764 17.007 10.4818 18.1879 11.6208 19.1003C11.9234 19.3427 12.2023 19.5661 12.45 19.7694C12.6977 19.5661 12.9766 19.3427 13.2792 19.1003C14.4182 18.1879 15.8923 17.007 17.2987 15.6219C18.3085 14.6274 19.2331 13.5716 19.9013 12.5105C20.5732 11.4436 20.95 10.4282 20.95 9.5C20.95 7.30898 19.1814 5.5 16.95 5.5C14.7973 5.5 13.5238 7.20226 13.1762 7.74742C12.8389 8.27655 12.0611 8.27653 11.7238 7.74742C11.3762 7.20225 10.1027 5.5 7.94995 5.5ZM2.44995 9.5C2.44995 6.49094 4.8806 4 7.94995 4C10.1814 4 11.6749 5.30207 12.45 6.21581C13.2251 5.30207 14.7186 4 16.95 4C20.0202 4 22.45 6.49102 22.45 9.5C22.45 10.8218 21.9206 12.1189 21.1706 13.3098C20.4169 14.5066 19.404 15.6539 18.3513 16.6906C16.8929 18.1269 15.258 19.4384 14.1002 20.3672C13.6149 20.7565 13.2134 21.0786 12.9439 21.3144C12.6611 21.5619 12.2389 21.5619 11.9561 21.3144C11.6866 21.0786 11.2851 20.7565 10.7998 20.3672C9.64196 19.4384 8.00707 18.1269 6.54868 16.6906C5.49597 15.6539 4.48303 14.5066 3.72937 13.3098C2.97936 12.1189 2.44995 10.8218 2.44995 9.5Z" fill="#141415"/>
</g>
</svg>
