<svg width="33" height="33" viewBox="0 0 33 33" fill="none" xmlns="http://www.w3.org/2000/svg">
<g id="Link &#226;&#134;&#146; SVG" clip-path="url(#clip0_1_11003)">
<path id="Vector" d="M16.5 0.910156C29.8333 0.910156 32.5 3.57683 32.5 16.9102C32.5 30.2435 29.8333 32.9102 16.5 32.9102C3.16667 32.9102 0.5 30.2435 0.5 16.9102C0.5 3.57683 3.16667 0.910156 16.5 0.910156Z" fill="#FF8800"/>
<path id="Vector_2" fill-rule="evenodd" clip-rule="evenodd" d="M21.5194 12.5732C21.5194 15.3254 19.2757 17.5691 16.5234 17.5691C13.7412 17.5691 11.4975 15.3254 11.4975 12.5732C11.4975 9.82086 13.7412 7.57715 16.5234 7.57715C19.2757 7.57715 21.5194 9.82086 21.5194 12.5732ZM18.5876 12.5732C18.5876 11.4363 17.6602 10.5089 16.5234 10.5089C15.3566 10.5089 14.4293 11.4363 14.4592 12.5732C14.4592 13.71 15.3866 14.6373 16.5234 14.6373C17.6602 14.6373 18.5876 13.71 18.5876 12.5732ZM21.4297 20.471C20.5321 21.0394 19.5449 21.4283 18.5278 21.6677L21.3698 24.42C21.9382 24.9884 21.9382 25.9158 21.3698 26.4842C20.8014 27.0526 19.874 27.0526 19.3056 26.4842L16.5533 23.7318L13.801 26.4842C13.5019 26.7533 13.1429 26.903 12.7539 26.903C12.3651 26.903 12.0061 26.7832 11.7069 26.4842C11.1385 25.9158 11.1385 24.9884 11.7069 24.42L14.4891 21.6378C13.472 21.3984 12.4847 21.0095 11.5872 20.4411C10.8992 20.0222 10.6898 19.1248 11.0787 18.4367C11.5274 17.7486 12.4249 17.5692 13.1129 17.9879C15.1472 19.2744 17.8098 19.2744 19.844 17.9879C20.5321 17.5392 21.4596 17.7486 21.8784 18.4367C22.327 19.1248 22.1176 20.0521 21.4297 20.471Z" fill="white"/>
</g>
<defs>
<clipPath id="clip0_1_11003">
<rect width="32" height="32" fill="white" transform="translate(0.5 0.910156)"/>
</clipPath>
</defs>
</svg>
