<svg width="25" height="24" viewBox="0 0 25 24" fill="none" xmlns="http://www.w3.org/2000/svg">
<g id="SVG">
<path id="Vector" fill-rule="evenodd" clip-rule="evenodd" d="M16.1101 10.5C16.1101 13.2614 13.8715 15.5 11.1101 15.5C8.34869 15.5 6.11011 13.2614 6.11011 10.5C6.11011 7.73858 8.34869 5.5 11.1101 5.5C13.8715 5.5 16.1101 7.73858 16.1101 10.5ZM14.9499 15.7451C13.8741 16.5341 12.5465 17 11.1101 17C7.52026 17 4.61011 14.0899 4.61011 10.5C4.61011 6.91015 7.52026 4 11.1101 4C14.7 4 17.6101 6.91015 17.6101 10.5C17.6101 11.9364 17.1442 13.264 16.3552 14.3398L20.3191 18.3036C20.7071 18.6917 20.7071 19.3209 20.3191 19.709C19.931 20.097 19.3018 20.097 18.9137 19.709L14.9499 15.7451Z" fill="black"/>
</g>
</svg>
