<svg width="33" height="33" viewBox="0 0 33 33" fill="none" xmlns="http://www.w3.org/2000/svg">
<g id="Link &#226;&#134;&#146; SVG" clip-path="url(#clip0_1_10989)">
<path id="Vector" d="M16.5 0.910156C29.8333 0.910156 32.5 3.57683 32.5 16.9102C32.5 30.2435 29.8333 32.9102 16.5 32.9102C3.16667 32.9102 0.5 30.2435 0.5 16.9102C0.5 3.57683 3.16667 0.910156 16.5 0.910156Z" fill="url(#paint0_linear_1_10989)"/>
<path id="Vector_2" d="M8.36098 16.7764C13.0253 14.7442 16.1356 13.4044 17.6918 12.7572C22.1352 10.909 23.0585 10.588 23.6603 10.5772C23.7927 10.5751 24.0886 10.6079 24.2803 10.7634C24.4421 10.8948 24.4867 11.0722 24.508 11.1967C24.5293 11.3212 24.5559 11.6049 24.5348 11.8266C24.294 14.3565 23.2521 20.4962 22.7221 23.3298C22.4978 24.5287 22.0561 24.9308 21.6286 24.9701C20.6995 25.0556 19.9939 24.3561 19.094 23.7662C17.6858 22.8431 16.8902 22.2684 15.5233 21.3676C13.9436 20.3267 14.9677 19.7545 15.8679 18.8194C16.1035 18.5748 20.1974 14.8511 20.2766 14.5132C20.2865 14.4711 20.2957 14.3135 20.2021 14.2304C20.1086 14.1473 19.9705 14.1757 19.8709 14.1983C19.7296 14.2303 17.48 15.7172 13.122 18.6591C12.4835 19.0975 11.9051 19.3112 11.3869 19.3C10.8156 19.2876 9.71669 18.977 8.89975 18.7114C7.89771 18.3857 7.10136 18.2135 7.17071 17.6604C7.20683 17.3722 7.60359 17.0775 8.36098 16.7764Z" fill="white"/>
</g>
<defs>
<linearGradient id="paint0_linear_1_10989" x1="16.5" y1="0.910156" x2="16.5" y2="32.6727" gradientUnits="userSpaceOnUse">
<stop stop-color="#2AABEE"/>
<stop offset="1" stop-color="#229ED9"/>
</linearGradient>
<clipPath id="clip0_1_10989">
<rect width="32" height="32" fill="white" transform="translate(0.5 0.910156)"/>
</clipPath>
</defs>
</svg>
