<svg width="33" height="33" viewBox="0 0 33 33" fill="none" xmlns="http://www.w3.org/2000/svg">
<g id="Link &#226;&#134;&#146; SVG" clip-path="url(#clip0_1_10993)">
<path id="Vector" d="M16.5 0.910156C29.8333 0.910156 32.5 3.57683 32.5 16.9102C32.5 30.2435 29.8333 32.9102 16.5 32.9102C3.16667 32.9102 0.5 30.2435 0.5 16.9102C0.5 3.57683 3.16667 0.910156 16.5 0.910156Z" fill="black"/>
<path id="Vector_2" d="M20.8585 14.6163C20.8585 16.988 20.8585 19.3596 20.8585 21.7313C20.8585 25.3906 17.892 28.3571 14.2327 28.3571C10.5734 28.3571 7.60693 25.3906 7.60693 21.7313C7.60693 18.072 10.5734 15.1055 14.2327 15.1055C14.4631 15.1055 14.6908 15.1173 14.9152 15.1402V18.8383C14.696 18.7868 14.4675 18.7596 14.2328 18.7596C12.5915 18.7596 11.2611 20.0901 11.2611 21.7313C11.2611 23.3725 12.5915 24.703 14.2328 24.703C15.8739 24.703 17.2044 23.3725 17.2044 21.7313V7.5332H20.903C20.903 10.2452 22.9929 12.4636 25.8333 12.4636V16.1619C24.0648 16.1752 22.3095 15.6332 20.8585 14.6163Z" fill="#FE1954"/>
<path id="Vector_3" d="M24.7767 15.1492C22.9318 15.1631 21.2086 14.5895 19.8019 13.6036C19.8019 15.9753 19.8019 18.347 19.8019 20.7186C19.8019 24.378 16.8354 27.3444 13.1761 27.3444C9.51676 27.3444 6.55029 24.378 6.55029 20.7186C6.55029 17.0593 9.51676 14.0929 13.1761 14.0929C13.4065 14.0929 13.6341 14.1046 13.8584 14.1276V17.8257C13.6394 17.7742 13.4109 17.7469 13.1761 17.7469C11.5349 17.7469 10.2044 19.0774 10.2044 20.7186C10.2044 22.3598 11.5349 23.6903 13.1761 23.6903C14.8173 23.6903 16.1478 22.3598 16.1478 20.7186L16.1477 6.52051H19.8464C19.8464 9.38697 22.0859 11.4509 24.7767 11.4509V15.1492Z" fill="#4AFFFE"/>
<path id="Vector_4" d="M24.7768 15.1493V12.3631C23.6172 12.1233 22.6086 11.4707 21.9114 10.5658C20.9081 9.8587 20.1842 8.78176 19.938 7.5332H17.2046L17.2044 21.7313C17.2044 23.3725 15.8739 24.703 14.2328 24.703C13.1694 24.703 12.2366 24.1446 11.7115 23.305C10.8115 22.7943 10.2045 21.8274 10.2045 20.7187C10.2045 19.0775 11.535 17.7471 13.1762 17.7471C13.411 17.7471 13.6394 17.7743 13.8585 17.8258V15.1159C10.3733 15.31 7.60693 18.1976 7.60693 21.7313C7.60693 23.3482 8.18616 24.8299 9.14841 25.9802C10.2646 26.8359 11.661 27.3445 13.1762 27.3445C16.8355 27.3445 19.8019 24.378 19.8019 20.7187V13.6037C21.2086 14.5896 22.9318 15.1632 24.7768 15.1493Z" fill="white"/>
</g>
<defs>
<clipPath id="clip0_1_10993">
<rect width="32" height="32" fill="white" transform="translate(0.5 0.910156)"/>
</clipPath>
</defs>
</svg>
