<svg width="33" height="33" viewBox="0 0 33 33" fill="none" xmlns="http://www.w3.org/2000/svg">
<g id="Link &#226;&#134;&#146; SVG" clip-path="url(#clip0_1_11007)">
<path id="Vector" d="M16.5 0.910156C29.8333 0.910156 32.5 3.57683 32.5 16.9102C32.5 30.2435 29.8333 32.9102 16.5 32.9102C3.16667 32.9102 0.5 30.2435 0.5 16.9102C0.5 3.57683 3.16667 0.910156 16.5 0.910156Z" fill="#1D9BF0"/>
<path id="Vector_2" d="M12.7878 25.0382C20.3318 25.0382 24.4598 18.7822 24.4598 13.3662C24.4598 13.1902 24.4598 13.0142 24.4518 12.8382C25.2518 12.2622 25.9478 11.5342 26.4998 10.7102C25.7638 11.0382 24.9718 11.2542 24.1398 11.3582C24.9878 10.8542 25.6358 10.0462 25.9478 9.08623C25.1558 9.55823 24.2758 9.89423 23.3398 10.0782C22.5878 9.27823 21.5238 8.78223 20.3478 8.78223C18.0838 8.78223 16.2438 10.6222 16.2438 12.8862C16.2438 13.2062 16.2838 13.5182 16.3478 13.8222C12.9398 13.6542 9.91582 12.0142 7.89182 9.53423C7.53981 10.1422 7.33981 10.8462 7.33981 11.5982C7.33981 13.0222 8.06782 14.2782 9.16382 15.0142C8.49182 14.9902 7.85982 14.8062 7.30781 14.5022C7.30781 14.5182 7.30781 14.5342 7.30781 14.5582C7.30781 16.5422 8.72382 18.2062 10.5958 18.5822C10.2518 18.6782 9.89182 18.7262 9.51582 18.7262C9.25182 18.7262 8.99582 18.7022 8.74782 18.6542C9.26782 20.2862 10.7878 21.4702 12.5798 21.5022C11.1718 22.6062 9.40382 23.2622 7.48381 23.2622C7.15581 23.2622 6.82781 23.2462 6.50781 23.2062C8.31582 24.3582 10.4758 25.0382 12.7878 25.0382Z" fill="white"/>
</g>
<defs>
<clipPath id="clip0_1_11007">
<rect width="32" height="32" fill="white" transform="translate(0.5 0.910156)"/>
</clipPath>
</defs>
</svg>
