<svg width="33" height="33" viewBox="0 0 33 33" fill="none" xmlns="http://www.w3.org/2000/svg">
<g id="Link &#226;&#134;&#146; SVG" clip-path="url(#clip0_1_10985)">
<path id="Vector" d="M16.5 0.910156C29.8333 0.910156 32.5 3.57682 32.5 16.9102C32.5 30.2435 29.8333 32.9102 16.5 32.9102C3.16667 32.9102 0.5 30.2435 0.5 16.9102C0.5 3.57682 3.16667 0.910156 16.5 0.910156Z" fill="#4680C2"/>
<path id="Vector_2" fill-rule="evenodd" clip-rule="evenodd" d="M26.696 11.9305C26.854 11.4337 26.696 11.0724 25.9959 11.0724H23.6698C23.0827 11.0724 22.8117 11.3885 22.6536 11.7273C22.6536 11.7273 21.4567 14.6179 19.7856 16.4923C19.2436 17.0343 18.9952 17.2149 18.7016 17.2149C18.5435 17.2149 18.3403 17.0343 18.3403 16.5375V11.9079C18.3403 11.3208 18.1596 11.0498 17.6628 11.0498H14.0044C13.643 11.0498 13.4172 11.3208 13.4172 11.5918C13.4172 12.1563 14.2528 12.2919 14.3431 13.8727V17.3053C14.3431 18.0505 14.2076 18.186 13.914 18.186C13.1236 18.186 11.2041 15.2728 10.0524 11.9531C9.82651 11.2982 9.60071 11.0498 9.01351 11.0498H6.66492C5.98743 11.0498 5.87451 11.3659 5.87451 11.7047C5.87451 12.3145 6.66492 15.3857 9.55551 19.4507C11.4751 22.2283 14.2076 23.7188 16.6692 23.7188C18.1596 23.7188 18.3403 23.3801 18.3403 22.8155V20.7153C18.3403 20.0378 18.4758 19.9249 18.95 19.9249C19.2888 19.9249 19.8985 20.1055 21.276 21.4379C22.8568 23.0187 23.1278 23.7414 24.0086 23.7414H26.3346C27.0121 23.7414 27.3283 23.4027 27.1476 22.7477C26.9444 22.0929 26.1766 21.1443 25.1829 20.0152C24.6409 19.3829 23.8279 18.6828 23.5795 18.3441C23.2408 17.8924 23.3311 17.7117 23.5795 17.3053C23.5569 17.3053 26.4024 13.2855 26.696 11.9305Z" fill="white"/>
</g>
<defs>
<clipPath id="clip0_1_10985">
<rect width="32" height="32" fill="white" transform="translate(0.5 0.910156)"/>
</clipPath>
</defs>
</svg>
